<mxfile host="app.diagrams.net" agent="Mozilla/5.0 (Macintosh; Intel Mac OS X 10_15_7) AppleWebKit/605.1.15 (KHTML, like Gecko) Version/18.1.1 Safari/605.1.15" version="25.0.3">
  <diagram name="Page-1" id="gNxw8MddvVBNjZTbIHWo">
    <mxGraphModel dx="1206" dy="1239" grid="1" gridSize="10" guides="1" tooltips="1" connect="1" arrows="1" fold="1" page="1" pageScale="1" pageWidth="850" pageHeight="1100" math="0" shadow="0">
      <root>
        <mxCell id="0" />
        <mxCell id="1" parent="0" />
        <mxCell id="H3SU6zbXUFuWfZ92cG2d-8" value="" style="group" parent="1" vertex="1" connectable="0">
          <mxGeometry x="89" y="220" width="320" height="70" as="geometry" />
        </mxCell>
        <mxCell id="H3SU6zbXUFuWfZ92cG2d-1" value="" style="endArrow=none;html=1;rounded=0;" parent="H3SU6zbXUFuWfZ92cG2d-8" edge="1">
          <mxGeometry width="50" height="50" relative="1" as="geometry">
            <mxPoint as="sourcePoint" />
            <mxPoint x="160" as="targetPoint" />
          </mxGeometry>
        </mxCell>
        <mxCell id="H3SU6zbXUFuWfZ92cG2d-2" value="" style="endArrow=none;html=1;rounded=0;" parent="H3SU6zbXUFuWfZ92cG2d-8" edge="1">
          <mxGeometry width="50" height="50" relative="1" as="geometry">
            <mxPoint y="70" as="sourcePoint" />
            <mxPoint x="160" y="70" as="targetPoint" />
          </mxGeometry>
        </mxCell>
        <mxCell id="H3SU6zbXUFuWfZ92cG2d-3" value="" style="endArrow=none;html=1;rounded=0;" parent="H3SU6zbXUFuWfZ92cG2d-8" edge="1">
          <mxGeometry width="50" height="50" relative="1" as="geometry">
            <mxPoint x="160" y="70" as="sourcePoint" />
            <mxPoint x="160" as="targetPoint" />
          </mxGeometry>
        </mxCell>
        <mxCell id="H3SU6zbXUFuWfZ92cG2d-5" value="Race 2" style="text;html=1;align=right;verticalAlign=middle;whiteSpace=wrap;rounded=0;" parent="H3SU6zbXUFuWfZ92cG2d-8" vertex="1">
          <mxGeometry x="60" y="20" width="90" height="30" as="geometry" />
        </mxCell>
        <mxCell id="H3SU6zbXUFuWfZ92cG2d-7" value="" style="endArrow=none;html=1;rounded=0;" parent="H3SU6zbXUFuWfZ92cG2d-8" edge="1">
          <mxGeometry width="50" height="50" relative="1" as="geometry">
            <mxPoint x="160" y="36" as="sourcePoint" />
            <mxPoint x="320" y="36" as="targetPoint" />
          </mxGeometry>
        </mxCell>
        <mxCell id="H3SU6zbXUFuWfZ92cG2d-9" value="" style="group" parent="1" vertex="1" connectable="0">
          <mxGeometry x="89" y="390" width="320" height="70" as="geometry" />
        </mxCell>
        <mxCell id="H3SU6zbXUFuWfZ92cG2d-10" value="" style="endArrow=none;html=1;rounded=0;" parent="H3SU6zbXUFuWfZ92cG2d-9" edge="1">
          <mxGeometry width="50" height="50" relative="1" as="geometry">
            <mxPoint as="sourcePoint" />
            <mxPoint x="160" as="targetPoint" />
          </mxGeometry>
        </mxCell>
        <mxCell id="H3SU6zbXUFuWfZ92cG2d-11" value="" style="endArrow=none;html=1;rounded=0;" parent="H3SU6zbXUFuWfZ92cG2d-9" edge="1">
          <mxGeometry width="50" height="50" relative="1" as="geometry">
            <mxPoint y="70" as="sourcePoint" />
            <mxPoint x="160" y="70" as="targetPoint" />
          </mxGeometry>
        </mxCell>
        <mxCell id="H3SU6zbXUFuWfZ92cG2d-12" value="" style="endArrow=none;html=1;rounded=0;" parent="H3SU6zbXUFuWfZ92cG2d-9" edge="1">
          <mxGeometry width="50" height="50" relative="1" as="geometry">
            <mxPoint x="160" y="70" as="sourcePoint" />
            <mxPoint x="160" as="targetPoint" />
          </mxGeometry>
        </mxCell>
        <mxCell id="H3SU6zbXUFuWfZ92cG2d-13" value="Race 1" style="text;html=1;align=right;verticalAlign=middle;whiteSpace=wrap;rounded=0;" parent="H3SU6zbXUFuWfZ92cG2d-9" vertex="1">
          <mxGeometry x="60" y="20" width="90" height="30" as="geometry" />
        </mxCell>
        <mxCell id="H3SU6zbXUFuWfZ92cG2d-14" value="" style="endArrow=none;html=1;rounded=0;" parent="H3SU6zbXUFuWfZ92cG2d-9" edge="1">
          <mxGeometry width="50" height="50" relative="1" as="geometry">
            <mxPoint x="160" y="36" as="sourcePoint" />
            <mxPoint x="320" y="36" as="targetPoint" />
          </mxGeometry>
        </mxCell>
        <mxCell id="H3SU6zbXUFuWfZ92cG2d-25" value="" style="endArrow=none;html=1;rounded=0;" parent="1" edge="1">
          <mxGeometry width="50" height="50" relative="1" as="geometry">
            <mxPoint x="249" y="336" as="sourcePoint" />
            <mxPoint x="409" y="336" as="targetPoint" />
          </mxGeometry>
        </mxCell>
        <mxCell id="H3SU6zbXUFuWfZ92cG2d-26" value="" style="endArrow=none;html=1;rounded=0;" parent="1" edge="1">
          <mxGeometry width="50" height="50" relative="1" as="geometry">
            <mxPoint x="251" y="506" as="sourcePoint" />
            <mxPoint x="411" y="506" as="targetPoint" />
          </mxGeometry>
        </mxCell>
        <mxCell id="H3SU6zbXUFuWfZ92cG2d-28" value="2nd Place" style="text;html=1;align=center;verticalAlign=middle;whiteSpace=wrap;rounded=0;" parent="1" vertex="1">
          <mxGeometry x="279" y="335" width="90" height="30" as="geometry" />
        </mxCell>
        <mxCell id="H3SU6zbXUFuWfZ92cG2d-29" value="4th Place" style="text;html=1;align=center;verticalAlign=middle;whiteSpace=wrap;rounded=0;" parent="1" vertex="1">
          <mxGeometry x="279" y="506" width="90" height="30" as="geometry" />
        </mxCell>
        <mxCell id="H3SU6zbXUFuWfZ92cG2d-32" value="Loser Race 2" style="text;html=1;align=center;verticalAlign=middle;whiteSpace=wrap;rounded=0;" parent="1" vertex="1">
          <mxGeometry x="279" y="305" width="90" height="30" as="geometry" />
        </mxCell>
        <mxCell id="H3SU6zbXUFuWfZ92cG2d-33" value="Loser Race 1" style="text;html=1;align=center;verticalAlign=middle;whiteSpace=wrap;rounded=0;" parent="1" vertex="1">
          <mxGeometry x="279" y="476" width="90" height="30" as="geometry" />
        </mxCell>
        <mxCell id="H3SU6zbXUFuWfZ92cG2d-37" value="Winner Race 2" style="text;html=1;align=center;verticalAlign=middle;whiteSpace=wrap;rounded=0;" parent="1" vertex="1">
          <mxGeometry x="279" y="226" width="90" height="30" as="geometry" />
        </mxCell>
        <mxCell id="H3SU6zbXUFuWfZ92cG2d-38" value="Winner Race 1" style="text;html=1;align=center;verticalAlign=middle;whiteSpace=wrap;rounded=0;" parent="1" vertex="1">
          <mxGeometry x="279" y="396" width="90" height="30" as="geometry" />
        </mxCell>
        <mxCell id="H3SU6zbXUFuWfZ92cG2d-41" value="Bracket Seed 1" style="text;html=1;align=center;verticalAlign=middle;whiteSpace=wrap;rounded=0;" parent="1" vertex="1">
          <mxGeometry x="119" y="190" width="90" height="30" as="geometry" />
        </mxCell>
        <mxCell id="H3SU6zbXUFuWfZ92cG2d-42" value="Bracket Seed 2" style="text;html=1;align=center;verticalAlign=middle;whiteSpace=wrap;rounded=0;" parent="1" vertex="1">
          <mxGeometry x="119" y="260" width="90" height="30" as="geometry" />
        </mxCell>
        <mxCell id="H3SU6zbXUFuWfZ92cG2d-43" value="Bracket Seed 3" style="text;html=1;align=center;verticalAlign=middle;whiteSpace=wrap;rounded=0;" parent="1" vertex="1">
          <mxGeometry x="119" y="360" width="90" height="30" as="geometry" />
        </mxCell>
        <mxCell id="H3SU6zbXUFuWfZ92cG2d-44" value="Bracket Seed 4" style="text;html=1;align=center;verticalAlign=middle;whiteSpace=wrap;rounded=0;" parent="1" vertex="1">
          <mxGeometry x="119" y="430" width="90" height="30" as="geometry" />
        </mxCell>
        <mxCell id="oQO4sHj1wTvOAAxzs0Sq-1" value="1st Place" style="text;html=1;align=center;verticalAlign=middle;whiteSpace=wrap;rounded=0;" vertex="1" parent="1">
          <mxGeometry x="279" y="255" width="90" height="30" as="geometry" />
        </mxCell>
        <mxCell id="oQO4sHj1wTvOAAxzs0Sq-2" value="3rd Place" style="text;html=1;align=center;verticalAlign=middle;whiteSpace=wrap;rounded=0;" vertex="1" parent="1">
          <mxGeometry x="279" y="426" width="90" height="30" as="geometry" />
        </mxCell>
      </root>
    </mxGraphModel>
  </diagram>
</mxfile>
